<?xml version="1.0" encoding="UTF-8"?>
<svg id="Layer_1" xmlns="http://www.w3.org/2000/svg" version="1.1" xmlns:xlink="http://www.w3.org/1999/xlink" viewBox="0 0 595.3 150.1">
  <!-- Generator: Adobe Illustrator 29.3.0, SVG Export Plug-In . SVG Version: 2.1.0 Build 146)  -->
  <defs>
    <style>
      .st0 {
        fill: url(#linear-gradient2);
      }

      .st1 {
        fill: #231f20;
      }

      .st2 {
        fill: #fff;
      }

      .st3 {
        fill: url(#linear-gradient1);
      }

      .st4 {
        fill: none;
      }

      .st5 {
        fill: #0e0808;
      }

      .st6 {
        clip-path: url(#clippath-1);
      }

      .st7 {
        clip-path: url(#clippath-3);
      }

      .st8 {
        fill: url(#linear-gradient3);
      }

      .st9 {
        clip-path: url(#clippath-2);
      }

      .st10 {
        fill: #131314;
      }

      .st11 {
        fill: url(#linear-gradient);
      }

      .st12 {
        clip-path: url(#clippath);
      }
    </style>
    <clipPath id="clippath">
      <path class="st4" d="M46,65.9v58.1h68v-58.1c0-18.8-15.2-34-34-34s-34,15.2-34,34"/>
    </clipPath>
    <linearGradient id="linear-gradient" x1="0" y1="839.3" x2="1" y2="839.3" gradientTransform="translate(-83114.2 35.4) rotate(90) scale(99.1 -99.1)" gradientUnits="userSpaceOnUse">
      <stop offset="0" stop-color="#d7ac3f"/>
      <stop offset="0" stop-color="#d7ac3f"/>
      <stop offset=".2" stop-color="#d9af43"/>
      <stop offset=".5" stop-color="#dfba50"/>
      <stop offset=".7" stop-color="#e9cd65"/>
      <stop offset=".9" stop-color="#f7e782"/>
      <stop offset="1" stop-color="#fef491"/>
    </linearGradient>
    <clipPath id="clippath-1">
      <polygon class="st4" points="77.7 46 74.4 46.9 71.5 46.9 73.8 54.2 77 52.7 79.4 52.7 80.3 53 78.5 54.2 78.8 54.6 81.2 54.3 83.6 54.8 86 56.3 86.6 55 86.2 53.9 87.3 53.5 87.6 52.3 87.6 50.6 85 50.2 82.1 49 81.8 47.5 81.5 46.2 79.9 45.5 77.7 46"/>
    </clipPath>
    <linearGradient id="linear-gradient1" x1="0" y1="839.4" x2="1" y2="839.4" gradientTransform="translate(14535.1 59.2) rotate(-90) scale(17.2 -17.2)" gradientUnits="userSpaceOnUse">
      <stop offset="0" stop-color="#fff"/>
      <stop offset="1" stop-color="#fef385"/>
    </linearGradient>
    <clipPath id="clippath-2">
      <rect class="st4" x="431.1" y="80.2" width="138.9" height="4.1"/>
    </clipPath>
    <linearGradient id="linear-gradient2" x1="0" y1="843.9" x2="1.1" y2="843.9" gradientTransform="translate(422.2 123232.6) scale(145.9 -145.9)" gradientUnits="userSpaceOnUse">
      <stop offset="0" stop-color="#fef491"/>
      <stop offset="0" stop-color="#f7e782"/>
      <stop offset=".3" stop-color="#e9cd65"/>
      <stop offset=".5" stop-color="#dfba50"/>
      <stop offset=".8" stop-color="#d9af43"/>
      <stop offset="1" stop-color="#d7ac3f"/>
      <stop offset="1" stop-color="#d7ac3f"/>
    </linearGradient>
    <clipPath id="clippath-3">
      <rect class="st4" x="511" y="105.4" width="59" height="4.1"/>
    </clipPath>
    <linearGradient id="linear-gradient3" x1=".1" y1="843.8" x2="1.1" y2="843.8" gradientTransform="translate(502.1 55800.2) scale(66 -66)" gradientUnits="userSpaceOnUse">
      <stop offset="0" stop-color="#fef491"/>
      <stop offset="0" stop-color="#f7e782"/>
      <stop offset=".3" stop-color="#e9cd65"/>
      <stop offset=".5" stop-color="#dfba50"/>
      <stop offset=".8" stop-color="#d9af43"/>
      <stop offset="1" stop-color="#d7ac3f"/>
      <stop offset="1" stop-color="#d7ac3f"/>
    </linearGradient>
  </defs>
  <g>
    <g class="st12">
      <rect class="st11" x="23.4" y="21.3" width="113.2" height="113.2" transform="translate(-31.7 79.4) rotate(-45)"/>
    </g>
    <path class="st2" d="M104.1,110.5c0,4.7-3.8,8.5-8.4,8.5s-8.4-3.8-8.4-8.5,3.8-8.5,8.4-8.5,8.4,3.8,8.4,8.5"/>
    <g class="st6">
      <rect class="st3" x="70.9" y="41.2" width="17.3" height="19.3" transform="translate(-4 94.9) rotate(-60.4)"/>
    </g>
    <path class="st10" d="M101.8,83.6c0,0-.3-.8-1.3-1.2-.5-.2-1.3-1.4-1.7-2.1,0-.2-.3-.9-1-1.3-.4-.3-1-.3-1.6-.2h0s0,0,0,0c0,0-.5.3-.7.8,0,.2-.8.5-1.4.7h0s0,0,0,0c0,.1.1.2.1.3,0,.1,0,.2.1.4.3.8.5,1.6.6,2.3v.2c0,.3.1.5.2.7.6-.5,1.3-1.2,2-2.1.5.4,1.6,1.3,1.5,2.4v.2s.2.1.2.1c0,0,.2.1.5.3l-.6.2h0s-.9.5-.2,1.9c.5,1.2,1.1,1.8,1.1,1.9l.3.3.3-.3c0,0,1.4-1.5,1.4-3.2l.2-1v-1.1h0Z"/>
    <path class="st10" d="M56.1,98.4s3.1,4.3,8.3.6c0,0-.8,1.9-3,2.5,0,0,3.8.6,5.6-3.6,0,0,.8-2.6.6-3.7-.1-1.1.8-2.6.8-2.6,0,0,.5-.8,1.2-1.1,0-.3,0-.6.2-.9h0c0-.1,0-.2,0-.4h0c-1.2-.5-3.5-.9-5.5,1.7,0,0-.8,1-.9,3-.2,2-4,1.8-4,1.8,0,0-1.6-.1-2.4-2.1,0,0,0,2.9,1.6,3.8,0,0,.9.7,2.1.4,0,0-2,2.1-4.7.4"/>
    <path class="st10" d="M75,107.5s0-.1,0-.3c.1.1.3.3.4.6h0c-.1.1-.2.1-.4.1v-.4ZM72,100.6s0-.5.4-.9c0,.1,0,.3.1.4h0s0,0,0,0c0,0,1.2,1.6,1.5,2.9.2,1,.1,1.4.1,1.4l-.2.3.9.6c-.4.3-.6.6-.6.7h0s0,0,0,0h0c-.3-.2-.6-.4-1.1-.5v-.4h0c0-.1,0-.6-.8-1.4-.4-.4-.4-2.1-.3-3.3M71.5,49.6c.9,0,3,0,5.6-1.1.7-.3,1.3-.4,2-.3.4,0,.9.2,1.1.5.1.2.2.5,0,1-.1.5,0,1.1.3,1.5,1,1.4,4.3,1.9,5.7,2l-.2.6c-.1.3-.2.8,0,1.3-.2.1-.5.3-.9.4h-.7c0,.1.4.7.4.7,0,0,.2.3.3.8-.1.1-.3.3-.4.6-.4-.3-.9-.7-1.6-1.1-1-.5-2-.7-3-.7s-1.4.1-2,.3h0c.3-.3,1-.7,1.9-.9l2.3-.4-2.2-.5c-.2,0-4-.8-6.7,1.1l-1.7-5.9ZM99.1,113c-8.8-3.8-16.8-4.9-22.3-5.1h0c.3-.4.7-1.3.2-2.3v-1.5c.1,0,0,0,0,0,0,0-.4-.7-.9-1-.2-.2-.5-1.2-.6-2.1,0-.1,0-1,.9-1.4,1.4-.5,3-2.7,3.1-2.8,0,0,.7-.9.7-2.6.1-.3.6-1.3.6-2.1.4,0,1-.1,1.8-.3h0c0,.1,0,.2,0,.2l.4,1.3h.2c1.4-.5,4.2-.9,4.3-.9h.2s0-.3,0-.3c-.2-.7-1.5-1-2.4-1.1h0,0c1.2-.5,2.5-1.1,3.7-2.1.3-.2,1.2-.7,1.6-.7.7,0,2-.2,2.2-.3.7-.1,1.4-.1,1.6,0,.5.6.3,1.5-.4,2.7-.2.2-.5.7-.4,1.1h0s-.9-.4-.9-.4h-.2c0,.2-1.3,1.1-1.2,3.5v.4s.4,0,.4,0c0,0,2.3-.3,3.2-1.3.5-.7.8-.8.9-.8h.7v-2.2c0-.8.2-2.3.7-2.7.7-.7.4-1.6,0-2,0-.1-.6-.7-1.3-.9h0s-.9,0-.9,0c-.1,0-.3,0-.5-.2,0-.2,0-.4,0-.6v-.2c-.2-1.1-.5-2-.7-2.5,0-.1,0-.2-.1-.3-.1-.3-.2-.4-.2-.4-.1-.4-.5-1-1.1-1.7v-1.2h-1l-1.5-4.2h0c0-.2-.2-.6-.3-.9.2.2.5.3.8.4,1.2.3,1.3,1.7,1.3,1.8h0c0,0,0,0,0,0,0,0,.2.7.8,1,.3.1.6.1,1,0,.9-.4,1.2-.7,1.3-.8.1-.2.6-.8.2-1.9-.4-.9-.8-2.4-.8-3.1.3-.2.6-.5.6-1h0c0-.1-.3-.5-.3-.5h0c.1-.4.3-.8.4-1.4h0s0,0,0,0l.2-.5h-.6c0,0-.5-.2-.9-.5-.4-.3-.6-.8-.4-1.3h0s.3-1.1.3-1.1l-.9.7s-.7.5-1.1,1.1c-.7-.4-2.4-1.3-4.4-.9h-.4c0,0,.4,1.4.4,1.4-.6-.2-1.5-.3-2.3,0l-.5.2.8.8c-.6,0-1.4.3-2.2.9l-.3.2c-.4-.3-.9-.7-.9-.7,0-.2,0-.5.1-.8h0s0,0,0,0c0-.7,0-1.6,0-1.6.3-.3.4-.8.3-1.2,0-.2-.1-.3-.2-.4h0s0,0,0,0c-.2-.3-.4-.5-.4-.5,0,0-.1-.1-.3-.3h0s0,0,0,0c-.2-.2-.4-.4-.8-.6-.1,0-.3-.1-.4-.1h-.2c-.8,0-1.6.2-2.1.8h0c0,0,0,0,0,0h0c-.2.2-.3.3-.5.5-.1.1-.2.3-.3.5h0c-.4,1.2.1,3.4.1,3.4h-.3c0,0-3.1-10.6-3.1-10.6,1.3-1,3-1.3,4.3-1.3h0c-.5.3-.8.7-.8.7l-.3.3,1.1,1.1h.3c1.5-.7,3-.6,4.5.1,1.1.6,1.8,1.4,1.8,1.4l.5.6.3-.8c.2-.7.6-1.1.6-1.1l.2-.2v-.3c-.2-.4-.2-.6-.3-.8.7-.3,1.1-.6,1.1-.6l.3-.3-.3-.4c-.3-.4-.1-.8-.1-.8l.6-1.8h-.6c-1.3,0-4.8-.5-5.6-1.7-.2-.2-.2-.5-.1-.7.2-.7.1-1.3-.2-1.7-.3-.5-.9-.8-1.7-.9-.8-.1-1.7,0-2.5.3-3,1.3-5.5,1-5.5,1h0l-.3-1h0s0-.7,0-.7l-.3-.3-1.3-1.5-.4,2.1.8.9,5.7,19.3c-.2.1-.3.2-.4.4-.2.3-.1.8,0,1.2,0,.3,0,.6-.4.8h0c0,0,0,0,0,0h0c-.3.2-.6.6-.9,1.1v.2c-.1,0-.4.3-.4.3-1.2,1.2-4.3,3.2-4.3,3.2l1.3.3c-2.3,1.9-4.4,2.9-6.3,3.2-4.7.8-7.7-1.7-7.7-1.7,0,0,.1.7.6,1.7h0c.3.5.7,1.1,1.3,1.7h0s0,0,0,0c.5.4,1,.8,1.8,1.2h0s0,0,0,0c.6.3,1.2.5,2,.6h0s-1.1.2-1.1.2h-1.5c-.2,0-.3,0-.4,0,0,0,.6.7,3.3,1l-.9.4c-.2,0-.3.1-.5.2l.9,1.2.4.5.4.5s.1,0,.3.2h0s0,0,0,0c.3.2.8.4,1.5.4h0s0,0,0,0c.5,0,1,0,1.6-.1h0s0,0,0,0c.7-.2,1.6-.5,2.6-1.1,0,0,.9-.4,2-1.2h0s.8-.1.8-.1h.2c-.5.4-1,.8-1.5,1.2,0,0,2.9-.6,5-2.6h0s0,0,0,0c.3-.3.6-.7.9-1l.2.9h0s-.2,1.3-.2,1.3l-.3.7c-.1,0-.3.1-.4.2-3,1.1-4.2,3.2-4.6,4.8,0,.1,0,.2,0,.3h0c0,.3-.1.6-.2.9-.2,1.1,0,1.8,0,1.9,0,.1.2,1.8.6,3,.3.9-.5,1.9-.6,2l-1.2,1.2c-.1.1-.6.7,0,1.7.5.7.8,2,.8,2.1,0,.1.4,1.9.1,3.2v.3c0,0,1.1.5,1.1.5v1.4c-8.6,0-17.2,0-25.8,0v18h67.2c0-1.6,0-3.3,0-4.9-3.4-2.6-7.9-5.5-13.5-7.9"/>
    <path d="M126.2,113.2h0c.3.2.7.6.9.8l.8-.9c-.2-.3-.6-.7-1-.8l-.7.9Z"/>
    <path d="M130.3,111.9c-.1.4-.3.9-.5,1.1.8,1.2,1.2,1.9,1.2,2.4,0,1.4-1.6,2.6-3.9,2.6s-3.1-.9-3.1-2.5.2-1.5.4-2.2h-.1c-.4,1-.6,1.9-.6,2.9,0,2,1.2,3.2,3.2,3.2s4.3-1.6,4.3-4.3-.6-2.7-.7-3.2h0Z"/>
    <path d="M194.6,114.8c-1.4,0-2.3-.7-2.3-1.6s1.2-1.7,2.3-1.7,1.5.3,1.5.9h0c.3-1.1-.3-1.9-1.5-1.9s-2.7,1.4-2.7,3.1.3,1.3.8,1.6c-.5,0-.9,0-1.3,0h-51.3c-1.3,0-1.9-.5-1.9-2.1s0-3.1,0-4.8,0-1.8,0-2.5h0c-.2.3-.6.8-.9,1.2.2,1.1.3,2.9.3,5.9s-.3,1.2-1.1,1.7c0-4.3-3.2-6.6-3.9-7.4h0c0,.4,0,1.2-.1,1.5,2.4,1.8,3.9,3.9,4.1,5.9-.8.5-2.1,1-4,1.3h0c.6.3,1.3.6,1.9.6,1.6,0,2.9-1.1,3.3-3.2h0c0,2.7.7,3.2,2.2,3.2h0s0,0,0,0h51.3c2.1,0,3.3-.6,5.5-1.1.2-.4.6-1.1.8-1.3h0c-.8.2-2,.4-3,.4"/>
    <path d="M199,119c0-.3.4-.8,1.1-.8s.6.2.6.5h0c0,0,0-.2,0-.3,0-.4-.3-.8-.7-.8-.7,0-1.3.8-1.3,1.6s.3.8.9.9c-.5.2-.8.6-1,1.1h0c.4-.4,1.2-.9,2.4-1.1,0-.2.1-.5.2-.6h0c-.2,0-.9.1-1.4.1s-1-.3-1-.6"/>
    <path d="M203.9,114.5c0,.5-.8.9-2.4.9s-1.1-.1-1.7-.4c1.5-.6,2.5-1.4,3.3-2.3.6.8.9,1.4.9,1.8M204.2,106h0c-.2.3-.5.8-.8,1.1.1.8.2,1.8.2,2.3,0,.9-.1,1.7-.4,2.4-.9-1.2-2.3-2.6-4.5-4.5h0c0,.4,0,1.1-.1,1.5,2.1,1.3,3.6,2.6,4.4,3.6-.8,1.3-2.1,2.3-4.2,3.1h0c1.1.6,1.6,1.3,3,1.3s2.5-.8,2.5-2.5-.2-1.3-.7-2.1c.6-1,.9-2.3.9-3.9s0-1.7,0-2.3"/>
    <path d="M206.9,106c-.2.4-.6.9-.9,1.2.2,1,.6,7.7.5,9.7h0c.3-1.5.5-2,.5-4.5s-.2-5.8-.2-6.4h0Z"/>
    <path d="M214.4,115.4c-1.3,0-1.7-.5-1.7-1.1,0-.8.8-1.5,1.7-1.5s1.8.7,2.1,2c-.6.4-1.3.6-2.1.6M214.5,111.8c-1.2,0-2.1,1.3-2.1,3s.6,1.9,1.9,1.9,2-.6,2.2-1.5h0c0,.3,0,.6,0,.9,0,1.6-2.8,3.2-5.3,3.4h0c.6.2,1.2.7,1.9.7,1.9,0,3.6-1.8,3.6-4.5s-.9-3.8-2.2-3.8"/>
    <path d="M223.6,107.1h0c0,.3-.2.6-.2.8,0,.4.4.5,1.1.5s1.3,0,2.3,0c0-.2.2-.7.3-.9-.7,0-2.1,0-2.5,0-.7,0-1,0-1-.3"/>
    <path d="M223.3,114.7c-1,0-1.3-.2-1.3-.7s.7-1.1,3.2-2.5c0,.6.1,1.3.1,2s-.8,1.1-2.1,1.1M235.3,111.3c-.1.4-.4,1-.6,1.2.6.5,1.3,1.5,1.3,2s-.9.8-2.6.8h-5.4c-1.2,0-1.9-.6-1.9-2.1,0-2.2-.1-3.2-.2-3.9h0c-.2.4-.6.8-.8.9,0,.2,0,.4.1.7-2.8,1.7-3.5,2.6-3.5,3.7s.5,1.2,1.5,1.2,2.1-.7,2.3-1.9h0c0,1.9.8,2.6,2.2,2.6h5.4c2.1,0,3-.8,3-2.4s-.6-2.6-.8-3h0Z"/>
    <path d="M234.7,118.2c-.4,0-1.3,0-2.3,0,0,.2-.2.7-.3.9.7,0,2.1,0,2.5,0,.7,0,1,0,1,.3h0c0-.3.2-.6.2-.8,0-.4-.4-.5-1.1-.5"/>
    <path d="M289.7,114.8c-1.4,0-2.3-.7-2.3-1.6s1.2-1.7,2.3-1.7,1.5.3,1.5.9h0c.3-1.1-.3-1.9-1.5-1.9s-2.7,1.4-2.7,3.1.3,1.3.8,1.6c-.5,0-.9,0-1.3,0h-45.9c-1.4,0-1.9-.5-1.9-1.9s0-3.3,0-4.9,0-1.9,0-2.5h0c-.2.4-.6.9-.9,1.2.2,1.3.3,2,.4,6.9,0,1.9.6,2.6,2.3,2.6h0s0,0,0,0h45.9c2.1,0,3.3-.6,5.5-1.1.2-.4.6-1.1.8-1.3h0c-.8.2-2,.4-3,.4"/>
    <path d="M312.7,106c-.2.4-.6.9-.9,1.2.2.9.7,5.9.7,7.4s-.5.7-1.9.7h0c-1.4,0-1.9-.5-1.9-1.9s0-3.3,0-4.9,0-1.9,0-2.5h0c-.2.3-.6.9-.9,1.2.2,1.3.3,2,.4,6.5,0,1.1-.6,1.5-1.9,1.5h-5.4c-1,0-1.6-.6-2-2.1-.7-2.6-.9-3.3-1-3.8h0c0,.2-.5,1-.6,1.2.5,1.1,1,2.9,1,3.4s-.8,1.3-2.4,1.3-1.7-.4-1.6-1.5h-.1c0,.4-.1.8-.1,1.2,0,1,.5,1.6,1.7,1.6s2.5-.9,2.6-2.8h0c.3,1.9,1.2,2.7,2.3,2.7h5.4s0,0,0,0c1.4,0,2.1-.6,2.1-2.3h0c0,1.6.8,2.3,2.1,2.3h0s0,0,0,0c.8,0,1.3-.1,1.6-.5.6-.7.9-2.1.9-3.1,0-2.4-.2-6.4-.2-7.1h0Z"/>
    <path d="M133,84.6c-.4,0-.9,0-1.6,0-.7,0-1.4,0-2.2.1,0,.2-.2.5-.3.9-.1.4-.2.6-.3.8.5,0,1.2,0,2.2-.1.9,0,1.6,0,2,0,.6,0,1,0,1.2.1.2,0,.4.2.4.4h.1c0-.2,0-.4.2-.7.1-.3.2-.6.2-.7,0-.3-.1-.5-.4-.6-.3-.1-.7-.2-1.3-.2"/>
    <path d="M141.7,81.4l1.4-1.5c-.1-.3-.4-.5-.7-.8-.3-.3-.7-.5-1-.6l-1.3,1.6h0c.2.2.5.4.8.7.3.3.6.5.8.7"/>
    <path d="M189,70.8c0-.3.1-.7.3-1,.2-.3.5-.6.9-.8.4-.2.8-.3,1.2-.3s.9.1,1.3.3c.4.2.8.5,1,.9.3.4.4.8.4,1.2,0,.7-.8,1.3-2.3,1.9-.9-.3-1.6-.7-2.1-1.1-.5-.4-.7-.9-.7-1.3M196.7,71.2c.5.4.9.7,1.1,1,.2.3.3.7.3,1s0,.5-.2.7c-.1.3-.2.5-.4.8-1.1-.4-2.6-.8-4.4-1.2.8-.9,1.2-1.9,1.2-3s0-.5,0-.7c1,.6,1.8,1,2.3,1.4M128.6,81.9c.8.4,1.7.6,2.9.6s2.8-.2,3.9-.7c1.1-.4,1.9-1.1,2.4-1.9.5-.8.8-1.8.8-2.9s0-.6-.2-.8c.5,0,1,0,1.7,0h0s0,0,0,0c1.1,0,2-.1,2.7-.4.7-.3,1.2-.7,1.6-1.2.4-.6.6-1.3.6-2.2h.1c0,.4,0,.6,0,.8,0,1.1.3,1.9.8,2.4.5.5,1.2.7,2.1.7h39.1c.9,0,1.8-.1,2.6-.3.8-.2,1.4-.5,2-1,2.7.7,4.5,1.3,5.4,1.6.6-.6,1-1.3,1.3-2.1.3-.8.5-1.6.5-2.4s-.1-1.2-.4-1.7c-.3-.5-.7-1-1.4-1.5-.7-.5-1.6-1.1-2.9-1.7-1.1-.6-2-1.1-2.7-1.5-.6-.4-1.1-.7-1.4-1h-.1c0,.3,0,.7-.2,1.1,0,.4-.2.8-.3,1.1.2,0,.5.2.9.5h.3c-.5.6-1,1.1-1.3,1.8-.4.7-.5,1.5-.5,2.2s0,.8.2,1.1c.1.3.3.6.6.8-.5,0-1.2.1-2,.1h-39.1c-.7,0-1.3,0-1.7-.3-.4-.2-.7-.4-.9-.8-.2-.4-.3-.8-.3-1.4v-1.1h-.2c-.1,1-.4,1.7-.6,2.2-.3.5-.7.8-1.4,1-.6.2-1.6.3-2.8.3-2.4,0-4.1,0-5.1,0-1.1,0-1.9-.1-2.6-.2-.3.6-.7,1.4-1.2,2.2h0c.3.2.7.3,1.2.4.4,0,1,.2,1.8.3.8.1,1.5.2,2,.3.5,0,.9.2,1.2.4.3.1.5.3.5.6s-.2.6-.7,1c-.5.4-1.2.7-2.2,1-1,.3-2.2.4-3.6.4s-1.9-.2-2.7-.5c-.7-.3-1.3-.8-1.7-1.4s-.6-1.3-.6-2.2,0-1.1.2-1.7c.1-.6.2-1.2.4-1.6h-.2c-.3.7-.6,1.5-.7,2.3-.2.8-.2,1.6-.2,2.4s.2,2,.6,2.8c.4.8,1,1.4,1.8,1.8"/>
    <path d="M205.5,62.5l1.4-1.5c-.1-.3-.4-.5-.7-.8-.3-.3-.7-.5-1-.7l-1.3,1.6h0c.2.2.5.4.8.7.3.3.6.5.7.7"/>
    <path d="M212.8,75.6c.3-.4.6-1,.9-1.6.2-.7.4-1.3.5-2,.1-.7.2-1.4.2-2,0-1.1,0-2.3,0-3.6,0-1.3,0-2.8-.2-4.6,0-.4,0-.9,0-1.5,0-.6,0-1,0-1.1h-.1c-.2.4-.5.8-.8,1.2-.3.4-.6.8-.9,1.1.1.5.3,1.6.5,3.2.2,1.6.4,3.2.6,4.8.2,1.6.3,2.7.3,3.4s-.2.6-.7.8c-.5.2-1.2.3-2.2.3s-1.5-.3-2-.8c-.5-.5-.9-1.3-1.2-2.5l-.9-3.3c-.4-1.5-.6-2.5-.7-2.9h-.1c0,.2-.2.6-.5,1.1-.3.6-.5,1-.7,1.2.3.6.5,1.2.8,1.9.2.7.4,1.4.6,2,.2.6.2,1.1.2,1.3,0,.3-.1.6-.5.9-.3.3-.7.5-1.3.7-.6.2-1.3.3-2,.3s-1.2,0-1.6-.2c-.4-.1-.6-.4-.8-.7-.1-.3-.2-.8-.2-1.3h-.2c-.1.9-.2,1.6-.2,2.1,0,.9.2,1.6.7,2,.5.5,1.2.7,2.1.7,2.7,0,4.1-1.5,4.3-4.6h.1c.5,3,1.7,4.5,3.7,4.5h0s0,0,0,0c.7,0,1.2,0,1.6-.2.4-.1.7-.3.9-.6"/>
    <path d="M218,76c0,.4,0,.6,0,.8h.1c0-.3.2-.7.3-1.3.2-.7.3-1.2.4-1.7,0-.5.2-1.1.2-1.8,0-.7,0-1.7,0-2.9,0-1.8,0-4.3-.2-7.7,0-1.2,0-2,0-2.3h-.1c-.2.4-.5.8-.8,1.2-.3.4-.6.8-.9,1,0,.5.2,1.7.4,3.6.2,1.9.3,3.9.4,6.1.1,2.1.2,3.8.2,5"/>
    <path d="M225.8,81.4c.8.4,1.7.6,2.9.6s2.5-.3,3.5-.8c1-.5,1.8-1.3,2.4-2.3.6-1,.9-2.2,1-3.6.5.7,1.2,1,2.1,1s1.4-.2,1.9-.7c.5-.4.8-1.1,1-1.9h.1c0,.8.1,1.5.5,1.9.4.4,1,.7,1.7.7s1.6-.3,2.1-1,.7-1.6.7-2.9,0-1.7-.3-2.3c-.2-.7-.4-1.4-.7-2,0,0,0-.2-.2-.4h-.1c-.1.4-.3.8-.5,1.2-.2.4-.4.7-.6,1,.7.6,1.2,1.1,1.5,1.6.3.5.5.9.5,1.2s-.1.3-.3.5c-.2.2-.5.3-.8.4-.4,0-.7.1-1.1.1s-.9,0-1.3-.2c-.4-.1-.7-.4-.9-.6,0-.4.1-.8.2-1.2,0-.4,0-.7.1-.9h-.2c-.1.7-.3,1.3-.5,1.7-.2.4-.5.7-.9.9-.4.2-.9.3-1.5.3s-.9-.1-1.3-.4c-.4-.2-.8-.7-1.1-1.3-.4-.6-.7-1.5-1-2.6h-.1c-.1.4-.3.8-.4,1.2-.2.4-.3.7-.5.9.6,1,1,1.8,1.3,2.5.3.6.4,1.1.4,1.3,0,.7-.3,1.3-.8,1.9-.5.6-1.3,1.1-2.3,1.5-1,.4-2.1.6-3.3.6s-1.9-.2-2.7-.5c-.7-.3-1.3-.8-1.7-1.4-.4-.6-.6-1.3-.6-2.2s0-1.1.2-1.7.3-1.2.5-1.8h-.2c-.7,1.6-1.1,3.2-1.1,4.9s.2,2,.6,2.8c.4.8,1,1.4,1.8,1.8"/>
    <path d="M246.9,79.5c-1.2.6-2.4,1-3.6,1.2h0c.2.2.5.3.8.5.4.2.8.4,1.2.5.3.1.7.2,1.1.2.9,0,1.7-.3,2.5-.9.8-.6,1.4-1.5,1.9-2.6.5-1.1.7-2.4.7-3.8s0-1.2-.2-1.8c-.2-.6-.3-1.1-.5-1.6-.2-.5-.5-1-.8-1.6h-.1c-.1.4-.3.8-.5,1.2-.2.4-.4.8-.6,1.1.8.8,1.4,1.4,1.8,2,.4.6.6,1,.6,1.3,0,.6-.4,1.3-1.2,2.1-.8.8-1.8,1.5-3.1,2.1"/>
    <path d="M298,71c0-.3.1-.6.4-.9.3-.3.7-.6,1.1-.8.5-.2.9-.3,1.4-.3s.9.1,1.4.3c.4.2.8.5,1,.9s.4.8.4,1.2-.1.5-.3.8c-.2.3-.6.5-1,.7-.5.2-1,.4-1.7.6-.5-.2-1-.4-1.4-.7-.4-.3-.7-.6-.9-.9-.2-.3-.3-.6-.3-.9M253,66.4c0,1.3.1,3.2.2,5.6,0,1.1.2,2,.4,2.6.2.6.6,1.1,1.2,1.3.5.3,1.2.4,2.1.4h0s0,0,0,0h39.1c1.1,0,2-.1,2.7-.3.7-.2,1.2-.6,1.6-1.1.3.5.8.8,1.4,1.1.7.2,1.7.3,3.1.3h0s0,0,0,0c.7,0,1.2,0,1.6-.2.4-.1.7-.3.9-.6.3-.4.6-1,.9-1.6.2-.7.4-1.3.5-2,.1-.7.2-1.4.2-2,0-1.1,0-2.3,0-3.6,0-1.3,0-2.8-.2-4.6,0-.4,0-.9,0-1.5,0-.6,0-1,0-1.1h-.1c-.2.4-.5.8-.8,1.2-.3.4-.6.8-.9,1.1.1.5.3,1.6.5,3.2s.4,3.2.6,4.8c.2,1.6.3,2.7.3,3.4s-.2.6-.7.8c-.5.2-1.2.3-2.2.3s-1.9,0-2.5,0c.4-.4.7-.8,1-1.3.2-.5.3-1.1.3-1.7s-.1-1.4-.4-1.9c-.2-.5-.6-1-1-1.3-.4-.3-.9-.5-1.5-.5s-1.2.2-1.8.7c-.6.4-1,1-1.3,1.8-.3.8-.5,1.6-.5,2.4s.2,1.2.6,1.7c-.5,0-1.1,0-1.8,0h-39.1c-.8,0-1.4,0-1.8-.3-.4-.2-.8-.5-1-.9-.2-.4-.3-1-.3-1.7s0-2.1,0-3.9c0-1.7,0-3,0-3.8s0-1.6,0-2.7c0-.6,0-1,0-1.4h-.1c-.2.4-.5.8-.8,1.2-.3.4-.6.8-.9,1,.2.8.3,1.6.4,2.2,0,.7.1,1.6.2,2.9"/>
    <polygon points="303.6 57.4 298.8 59.6 298.8 60.2 303.5 58 303.6 57.4"/>
    <path d="M300.9,61.9l-1.3,1.6h0c.2.2.5.4.8.7.3.3.6.5.7.7l1.4-1.5c-.1-.3-.4-.5-.7-.8-.3-.3-.7-.5-1-.7"/>
    <path d="M312.3,71c.1,2.1.2,3.8.2,5s0,.6,0,.8h.1c0-.3.2-.7.3-1.3.2-.7.3-1.2.4-1.7,0-.5.2-1.1.2-1.8,0-.7,0-1.7,0-2.9,0-1.8,0-4.3-.2-7.7,0-1.2,0-2,0-2.3h-.1c-.2.4-.5.8-.8,1.2-.3.4-.6.8-.9,1,0,.5.2,1.7.4,3.6.2,1.9.3,3.9.4,6.1"/>
    <path d="M131.1,92.8l1.5,3.6c-.7,0-1.4.3-2,.6-.6.3-1.2.7-1.7,1.2l2.2-5.3ZM126.3,101.9h1.9c0,0,0-.3,0-.3v-.2c0,0-.3,0-.3,0h-.1s-.1-.1-.1-.1c0,0,0-.2,0-.4l.2-.6c.4-1,1.1-1.7,1.9-2.3.8-.6,1.8-.9,2.9-1l1.6,3.9c0,.2,0,.3,0,.4,0,0-.1.1-.3.1h-.2c0,0,0,.3,0,.3v.2c0,0,.3,0,.3,0h3.9c.2,0,.3,0,.3-.3v-.2c0,0-.3,0-.3,0-.2,0-.4,0-.5-.2-.2-.1-.3-.3-.4-.5l-4.7-11.3h0c0,0,0-.1,0-.1h0s0,0,0,0h-.1s0,0,0,0h0s0,0,0,0h0c0,0-4.7,11.4-4.7,11.4,0,.2-.2.3-.4.5-.2.1-.4.2-.6.2h-.2c0,0,0,.3,0,.3,0,.2,0,.3.3.3"/>
    <path d="M140.1,101.2c-.1.1-.3.2-.4.2h-.2c0,0,0,.3,0,.3,0,.2,0,.3.3.3h9.2c.2,0,.3,0,.3-.3v-2.9c0-.2,0-.3-.3-.3h-.2c0,0,0,.3,0,.3,0,.4,0,.7-.2,1-.1.3-.3.6-.6.9-.2.2-.5.4-.8.6-.3.1-.7.2-1,.2h-3.1v-11c0-.2,0-.3.2-.4.1-.1.2-.2.4-.2h.2c0,0,0-.3,0-.3,0-.2,0-.3-.3-.3h-3.8c-.2,0-.3,0-.3.3v.2c0,0,.3,0,.3,0,.2,0,.3,0,.4.2.1.1.2.2.2.4v10.5c0,.2,0,.3-.2.4"/>
    <path d="M163.4,89.7c.4,0,.7,0,1,.2.3.1.6.3.8.6.2.2.4.5.6.9.1.3.2.7.2,1v.2c0,0,.3,0,.3,0h.2c0,0,0-.3,0-.3v-3.1c0,0-.3,0-.3,0h-9.2c-.2,0-.3,0-.3.3v.2c0,0,.3,0,.3,0,.2,0,.3,0,.4.2.1.1.2.2.2.4v10.5c0,.2,0,.3-.2.4-.1.1-.2.2-.4.2h-.2c0,0,0,.3,0,.3,0,.2,0,.3.3.3h3.8c.2,0,.3,0,.3-.3v-.2c0,0-.3,0-.3,0-.2,0-.3,0-.4-.2s-.2-.2-.2-.4v-5h1.7c.2,0,.3,0,.4.2.1.1.2.2.2.4s0,.3.3.3.3,0,.3-.3v-1.9c0,0-.3,0-.3,0h-.2c0,0,0,.3,0,.3,0,.2,0,.3-.2.4-.1.1-.3.2-.4.2h-1.7v-5.5h3.1Z"/>
    <path d="M168,97c-.6.3-1.2.7-1.7,1.2l2.2-5.3,1.5,3.6c-.7,0-1.4.3-2,.6M171.6,101.3h-.2c0,0,0,.3,0,.3v.2c0,0,.3,0,.3,0h3.9c.2,0,.3,0,.3-.3v-.2c0,0-.3,0-.3,0-.2,0-.4,0-.5-.2-.2-.1-.3-.3-.4-.5l-4.7-11.3h0c0,0,0-.1,0-.1h0s0,0,0,0h-.1s0,0,0,0h0s0,0,0,0h0c0,0-4.7,11.4-4.7,11.4,0,.2-.2.3-.4.5-.2.1-.4.2-.6.2h-.2c0,0,0,.3,0,.3,0,.2,0,.3.3.3h1.9c0,0,0-.3,0-.3v-.2c0,0-.3,0-.3,0h-.1s-.1-.1-.1-.1c0,0,0-.2,0-.4l.2-.6c.4-1,1.1-1.7,1.9-2.3.8-.6,1.8-.9,2.9-1l1.6,3.9c0,.2,0,.3,0,.4,0,0-.1.1-.3.1"/>
    <path d="M180.3,89.7h3c.3,0,.5.1.7.4.2.2.4.5.6.9.2.4.3.8.4,1.3.1.5.2,1,.2,1.5s0,1.1-.1,1.5c0,.5-.2.9-.4,1.3-.4.8-.8,1.2-1.3,1.2h-3v-8.1ZM183.1,98.4l2.1,3.4c0,0,.1.1.2.1h3.5c0,0,0-.3,0-.3v-.2c0,0-.3,0-.3,0-.2,0-.4,0-.6-.2-.2-.1-.4-.3-.5-.5l-1.9-3c.7-.4,1.2-1,1.5-1.7.4-.7.6-1.4.6-2.2s-.1-1.2-.4-1.8c-.2-.6-.6-1-1-1.5-.4-.4-.9-.7-1.4-1-.5-.2-1.1-.4-1.7-.4h-6.2c-.2,0-.3,0-.3.3v.2c0,0,.3,0,.3,0,.2,0,.3,0,.4.2.1.1.2.2.2.4v10.5c0,.2,0,.3-.2.4-.1.1-.2.2-.4.2h-.2c0,0,0,.3,0,.3,0,.2,0,.3.3.3h3.8c.2,0,.3,0,.3-.3v-.2c0,0-.3,0-.3,0-.2,0-.3,0-.4-.2-.1-.1-.2-.2-.2-.4v-2.4h2.8Z"/>
    <path d="M196.6,89.7c.4,0,.7,0,1,.2.3.1.6.3.8.6.2.2.4.5.6.9.1.3.2.7.2,1v.2c0,0,.3,0,.3,0,.2,0,.3,0,.3-.3v-2.9c0-.2,0-.3-.3-.3h-9.2c-.2,0-.3,0-.3.3v.2c0,0,.3,0,.3,0,.2,0,.3,0,.4.2.1.1.2.2.2.4v10.5c0,.2,0,.3-.2.4-.1.1-.3.2-.4.2h-.2c0,0,0,.3,0,.3,0,.2,0,.3.3.3h9.2c.2,0,.3,0,.3-.3v-2.9c0-.2,0-.3-.3-.3h-.2c0,0,0,.3,0,.3,0,.4,0,.7-.2,1-.1.3-.3.6-.6.9-.2.2-.5.4-.8.6-.3.1-.7.2-1,.2h-3.1v-5.6h1.7c.2,0,.3,0,.4.2.1.1.2.2.2.4s0,.3.3.3.3,0,.3-.3v-1.9c0,0-.3,0-.3,0h-.2c0,0,0,.3,0,.3,0,.2,0,.3-.2.4-.1.1-.3.2-.4.2h-1.7v-5.5h3.1Z"/>
    <path d="M209.1,96c-.2-.3-.5-.6-.9-.8-.3-.2-.7-.4-1.1-.5l-3-.8c-.5-.1-.8-.4-1.1-.8-.3-.4-.4-.8-.4-1.3s0-.6.2-.8c.1-.3.3-.5.5-.7.2-.2.4-.3.7-.5.3-.1.5-.2.8-.2h.6c.4,0,.9,0,1.2.3.4.2.7.4,1,.7.3.3.5.6.7,1,.2.4.3.8.3,1.3s0,.3.3.3.3,0,.3-.3v-3.4c0-.2,0-.3-.3-.3s-.3,0-.3.3v.3c0,.1,0,.2-.1.3,0,0-.2.1-.3.1s-.2,0-.3-.1h0c-.3-.3-.7-.6-1.1-.7-.4-.2-.9-.3-1.4-.3h-.6c-.5,0-1,0-1.4.3-.4.2-.8.5-1.2.8-.3.3-.6.7-.8,1.2-.2.5-.3.9-.3,1.5s0,.8.2,1.2c.1.4.3.7.5,1.1.2.3.5.6.9.8.3.2.7.4,1.1.5l3,.8c.5.1.8.4,1.1.8s.4.8.4,1.3,0,.6-.2.8c-.1.3-.3.5-.5.7-.2.2-.4.3-.7.5-.3.1-.5.2-.8.2h-1.4c-.4,0-.9,0-1.2-.3-.4-.2-.7-.4-1-.7-.3-.3-.5-.6-.7-1-.2-.4-.3-.8-.3-1.3v-.2c0,0-.3,0-.3,0-.2,0-.3,0-.3.3v3.4c0,.2,0,.3.3.3h.2c0,0,0-.3,0-.3v-.3c0-.1,0-.2.1-.3,0,0,.2-.1.3-.1s.2,0,.3.1h0s0,0,0,0c.3.3.7.5,1.1.7.4.2.9.3,1.4.3h1.4c.5,0,1-.1,1.4-.3.4-.2.8-.5,1.2-.8.3-.3.6-.7.8-1.2.2-.5.3-.9.3-1.5s0-.8-.2-1.2c-.1-.4-.3-.7-.6-1.1"/>
    <path d="M222,97c-.6.3-1.2.7-1.7,1.2l2.2-5.3,1.5,3.6c-.7,0-1.4.3-2,.6M225.8,100.9c0,.2,0,.3,0,.4,0,0-.1.1-.3.1h-.2c0,0,0,.3,0,.3v.2c0,0,.3,0,.3,0h3.9c.2,0,.3,0,.3-.3v-.2c0,0-.3,0-.3,0-.2,0-.4,0-.5-.2-.2-.1-.3-.3-.4-.5l-4.7-11.3h0c0,0,0-.1,0-.1h0s0,0,0,0h-.1s0,0,0,0h0s0,0,0,0h0c0,0-4.7,11.4-4.7,11.4,0,.2-.2.3-.4.5-.2.1-.4.2-.6.2h-.2c0,0,0,.3,0,.3,0,.2,0,.3.3.3h1.9c0,0,0-.3,0-.3v-.2c0,0-.3,0-.3,0h-.1s-.1-.1-.1-.1c0,0,0-.2,0-.4l.2-.6c.4-1,1.1-1.7,1.9-2.3.8-.6,1.8-.9,2.9-1l1.6,3.9Z"/>
    <path d="M231.5,101.2c-.1.1-.3.2-.4.2h-.2c0,0,0,.3,0,.3,0,.2,0,.3.3.3h9.2c.2,0,.3,0,.3-.3v-2.9c0-.2,0-.3-.3-.3h-.2c0,0,0,.3,0,.3,0,.4,0,.7-.2,1-.1.3-.3.6-.6.9-.2.2-.5.4-.8.6-.3.1-.7.2-1,.2h-3.1v-11c0-.2,0-.3.2-.4.1-.1.2-.2.4-.2h.2c0,0,0-.3,0-.3,0-.2,0-.3-.3-.3h-3.8c-.2,0-.3,0-.3.3v.2c0,0,.3,0,.3,0,.2,0,.3,0,.4.2.1.1.2.2.2.4v10.5c0,.2,0,.3-.2.4"/>
    <path d="M251.7,89.7h2.2c.5,0,1,.2,1.4.5.4.3.8.7,1.2,1.2.3.5.6,1.1.8,1.8.2.7.3,1.5.3,2.3s0,1.5-.3,2.3c-.2.7-.5,1.3-.8,1.8-.3.5-.7.9-1.2,1.2-.4.3-.9.5-1.4.5h-2.2v-11.6ZM248.9,101.2c-.1.1-.2.2-.4.2h-.2c0,0,0,.3,0,.3,0,.2,0,.3.3.3h5.4c.9,0,1.7-.2,2.4-.5.8-.3,1.4-.8,2-1.4.6-.6,1-1.2,1.3-2,.3-.8.5-1.6.5-2.5s-.2-1.7-.5-2.5c-.3-.8-.8-1.4-1.3-2-.6-.6-1.2-1-2-1.4-.8-.3-1.6-.5-2.4-.5h-5.4c-.2,0-.3,0-.3.3v.2c0,0,.3,0,.3,0,.2,0,.3,0,.4.2.1.1.2.2.2.4v10.5c0,.2,0,.3-.2.4"/>
    <path d="M263.4,97c-.6.3-1.2.7-1.7,1.2l2.2-5.3,1.5,3.6c-.7,0-1.4.3-2,.6M267,101.3h-.2c0,0,0,.3,0,.3v.2c0,0,.3,0,.3,0h3.9c.2,0,.3,0,.3-.3v-.2c0,0-.3,0-.3,0-.2,0-.4,0-.5-.2-.2-.1-.3-.3-.4-.5l-4.7-11.3h0c0,0,0-.1,0-.1h0s0,0,0,0h-.1s0,0,0,0h0s0,0,0,0h0c0,0-4.7,11.4-4.7,11.4,0,.2-.2.3-.4.5-.2.1-.4.2-.6.2h-.2c0,0,0,.3,0,.3,0,.2,0,.3.3.3h1.9c0,0,0-.3,0-.3v-.2c0,0-.3,0-.3,0h-.1s-.1-.1-.1-.1c0,0,0-.2,0-.4l.2-.6c.4-1,1.1-1.7,1.9-2.3.8-.6,1.8-.9,2.9-1l1.6,3.9c0,.2,0,.3,0,.4,0,0-.1.1-.3.1"/>
    <path d="M283.3,89.9c.1-.1.2-.2.4-.2h.2c0,0,0-.3,0-.3v-.2c0,0-.3,0-.3,0h-3.9c0,0,0,.3,0,.3v.2c0,0,.3,0,.3,0,.2,0,.3,0,.4.2.1.1.2.2.2.4v5h-4.8v-5c0-.2,0-.3.2-.4.1-.1.2-.2.4-.2h.2c0,0,0-.3,0-.3,0-.2,0-.3-.3-.3h-3.8c-.2,0-.3,0-.3.3v.2c0,0,.3,0,.3,0,.2,0,.3,0,.4.2.1.1.2.2.2.4v10.5c0,.2,0,.3-.2.4-.1.1-.3.2-.4.2h-.2c0,0,0,.3,0,.3,0,.2,0,.3.3.3h3.8c.2,0,.3,0,.3-.3v-.2c0,0-.3,0-.3,0-.2,0-.3,0-.4-.2-.1-.1-.2-.2-.2-.4v-5h4.8v5c0,.2,0,.3-.2.4-.1.1-.2.2-.4.2h-.2c0,0,0,.3,0,.3v.2c0,0,.3,0,.3,0h3.9c0,0,0-.3,0-.3v-.2c0,0-.3,0-.3,0-.2,0-.3,0-.4-.2-.1-.1-.2-.2-.2-.4v-10.5c0-.2,0-.3.2-.4"/>
    <path d="M289.5,97c-.6.3-1.2.7-1.7,1.2l2.2-5.3,1.5,3.6c-.7,0-1.4.3-2,.6M297.3,101.6v-.2c0,0-.3,0-.3,0-.2,0-.4,0-.5-.2-.2-.1-.3-.3-.4-.5l-4.7-11.3h0c0,0,0-.1,0-.1h0s0,0,0,0h-.1s0,0,0,0h0s0,0,0,0h0c0,0-4.7,11.4-4.7,11.4,0,.2-.2.3-.4.5-.2.1-.4.2-.6.2h-.2c0,0,0,.3,0,.3,0,.2,0,.3.3.3h1.9c0,0,0-.3,0-.3v-.2c0,0-.3,0-.3,0h-.1s-.1-.1-.1-.1c0,0,0-.2,0-.4l.2-.6c.4-1,1.1-1.7,1.9-2.3.8-.6,1.8-.9,2.9-1l1.6,3.9c0,.2,0,.3,0,.4,0,0-.1.1-.3.1h-.2c0,0,0,.3,0,.3v.2c0,0,.3,0,.3,0h3.9c.2,0,.3,0,.3-.3"/>
    <path d="M306.5,99.8c0,.3-.1.6-.2.9,0,.2-.1.4-.2.5,0,.1-.1.2-.2.2h-4.2v-5.6h4.2s.1,0,.2.2c0,.1.2.3.2.5,0,.2.1.5.2.9,0,.3,0,.7,0,1.2s0,.9,0,1.2M301.8,89.7h3.5s.1,0,.2.2c0,.1.2.3.2.5,0,.2.1.5.2.9,0,.3,0,.7,0,1.2s0,.9,0,1.2c0,.3-.1.6-.2.9,0,.2-.1.4-.2.5,0,.1-.1.2-.2.2h-3.5v-5.6ZM307.8,95.8c-.3-.2-.6-.4-1-.5.5-.3.9-.7,1.2-1.2.3-.5.5-1.1.5-1.7s0-.9-.2-1.3c-.2-.4-.4-.7-.7-1-.3-.3-.6-.5-1-.7s-.8-.3-1.3-.3h-6.7c-.2,0-.3,0-.3.3v.2c0,0,.3,0,.3,0,.2,0,.3,0,.4.2.1.1.2.2.2.4v10.5c0,.2,0,.3-.2.4-.1.1-.2.2-.4.2h-.2c0,0,0,.3,0,.3,0,.2,0,.3.3.3h7.4c.5,0,.9,0,1.3-.3.4-.2.7-.4,1-.7.3-.3.5-.6.7-1,.2-.4.3-.8.3-1.3s0-.7-.2-1.1c-.1-.3-.3-.6-.5-.9-.2-.3-.5-.5-.7-.7"/>
    <path d="M313.7,101.3c-.2,0-.3,0-.4-.2-.1-.1-.2-.2-.2-.4v-10.5c0-.2,0-.3.2-.4s.2-.2.4-.2h.2c0,0,0-.3,0-.3,0-.2,0-.3-.3-.3h-3.8c-.2,0-.3,0-.3.3v.2c0,0,.3,0,.3,0,.2,0,.3,0,.4.2.1.1.2.2.2.4v10.5c0,.2,0,.3-.2.4-.1.1-.3.2-.4.2h-.2c0,0,0,.3,0,.3,0,.2,0,.3.3.3h3.8c.2,0,.3,0,.3-.3v-.2c0,0-.3,0-.3,0Z"/>
    <g class="st9">
      <rect class="st0" x="431.1" y="80.2" width="138.9" height="4.1"/>
    </g>
    <g class="st7">
      <rect class="st8" x="511" y="105.4" width="59" height="4.1"/>
    </g>
    <path class="st5" d="M569.5,103.9c0,4.3-.4,4.8-1,7.2h-.1c.1-3-.6-13-.9-14.5.5-.5,1.2-1.5,1.6-2.1h.1c0,1,.3,5.9.3,9.4M562.4,110.1c-.4.6-1.2.8-2.4.8s-.6-.3-.6-.8c0-1.1.3-1.6.9-1.6,1.9,0,2.7-.4,2.7-1,0-2.1-.9-9.3-1.2-10.7.5-.6,1.2-1.5,1.6-2.1h.1c0,1.1.3,6.6.3,10.2s-.5,4-1.5,5.3M551.4,106.7c.6,1.1,2.6,2,4.1,2s1.4-.3,1.4-.9c0-1.4-1.2-2.9-3-2.9s-2,.7-2.5,1.8M557.3,107.9h-.1c0,2.2-.8,3.2-2,3.2-2.2,0-4.1-1.2-4.4-2.7,0-.5,0-1,0-1.4h-.1c-.5,1.4-1,3.7-3.3,3.7s-.5-.3-.5-.8c0-1.1.3-1.6.9-1.6,1.4,0,2.2-.4,2.9-2.1l.4.3c1.1-2.5,2-3.5,3.3-3.5s2,.7,2.9,2.8c.7,1.8,1.5,2.4,3,2.4l-.4,2.5c-1.5,0-2.5-.9-2.7-2.9M545.9,102.9c-1.5.1-3,.2-3.6.2-1.1,0-1.6-.2-1.6-.8s.2-.8.3-1.3h.1c0,.4.4.5,1.5.5s2.7,0,3.9-.1c-.2.3-.5,1.2-.6,1.6M544.8,107.2h-.1c-.2,2.6-1.5,3.6-4.6,3.6s-.5-.3-.5-.8c0-1.1.3-1.6.9-1.6,3.5,0,4.2-.7,4.5-3.4h.2v1c0,1.6.6,2.4,2.6,2.4l-.4,2.5c-1.7,0-2.9-.8-2.7-3.6M536.6,106.8c-.1-7.1-.3-8.1-.7-10.1.5-.5,1.2-1.5,1.6-2.1h.1c0,1,.1,2,.1,3.9s-.1,4.9-.1,7.2.8,2.7,2.9,2.7l-.4,2.5c-2.5,0-3.4-1-3.5-4.1M532.7,104.5h0c-.3.4-.9,1.2-1.1,1.7-3.3,0-4.6,4.7-11.5,4.7s-.5-.3-.5-.8c0-1.1.3-1.6.9-1.6,6.3,0,7.9-1.8,10-2.4h0c-3.2-.7-5-1.9-6.7-1.9s-1.6.5-2.1,1.4h-.1c.7-2.7,1.5-3.3,2.6-3.3,2.1,0,5,2.1,8.5,2.2M516.1,110.8c-.4,0-.5-.3-.5-.8,0-1.1.3-1.6.9-1.6h4.1l-.4,2.5h-4.1ZM516.1,110.8c-.4,0-.5-.3-.5-.8,0-1.1.3-1.6.9-1.6h4.1l-.4,2.5h-4.1ZM509.6,97.2c0-.3.2-.8.3-1.3h.1c0,.4.4.5,1.5.5s2.7,0,3.9-.1c-.2.3-.5,1.2-.6,1.6-1.5.1-3,.2-3.6.2-1.1,0-1.6-.2-1.6-.8M512.5,105.8c0-.9,0-2-.2-2.9-3.8,2-4.7,3-4.7,3.6s.5.9,1.9.9,3-.7,3-1.6M516.5,108.4l-.4,2.5c-2.1,0-3.3-1.2-3.4-4.2h-.1c-.3,2.1-1.3,3.2-3.4,3.2s-2.3-.7-2.3-2c0-1.8,1.1-3.1,5.3-5.7,0-.4-.1-.8-.2-1.1.4-.3,1-1,1.4-1.7h0c.1,1.1.3,2.5.3,6s.9,3,2.7,3"/>
  </g>
  <g>
    <path class="st1" d="M433.9,70.3c.7,0,2.2,0,3.8-.2,0-.4.5-1.6.7-2-1.3.1-3.7.2-4.1.2-1,0-1.5-.1-1.5-.6h-.1c0,.6-.4,1.2-.4,1.7,0,.7.6.9,1.6.9Z"/>
    <path class="st1" d="M441.8,85.4c-.7,0-2.2,0-3.8.2-.1.4-.5,1.6-.7,2,1.3-.1,3.7-.2,4.1-.2,1,0,1.5.1,1.5.6h.1c0-.6.4-1.2.4-1.7,0-.7-.6-.9-1.6-.9Z"/>
    <path class="st1" d="M450.2,74.2c-.3.8-.9,2.2-1.3,2.7,1.1.8,2.3,2.1,2.3,2.6s-2,.9-4.1.9c-2.1,0-2.7-.8-2.7-2.1v-1.1h-.2c-.4,2.6-1,3.2-4.8,3.2-1.6,0-2.4-.8-2.4-2.8,0-3.8-.2-5.2-.3-6h0c-.5.8-1.3,1.7-1.8,2.1,0,.2.1.6.2,1-4.2,2.6-5.2,3.9-5.2,5.8s.8,2.1,2.4,2.1,3-1.1,3.3-3.6h.1c.1,3.4,1.3,4.6,3.3,4.6,0,0,0,0,0,0,0,0,0,0,0,0s0,0,0,0h0c3.3,0,4.7-1.1,4.8-3.9h.1c-.3,3,1.1,3.9,2.7,3.9,0,0,0,0,0,0,0,0,0,0,0,0s0,0,0,0h0c3.7,0,5-1.5,5-4.5s-1-4.2-1.2-4.8h-.1ZM432.4,79.4c-1.4,0-1.8-.3-1.8-.8s.8-1.3,4.4-3.1c.1.9.2,1.9.2,2.6s-1.2,1.3-2.8,1.3Z"/>
    <path class="st1" d="M449.2,73.1l1.5-1.6c-.3-.5-1.2-1.3-1.8-1.6l-1.4,1.7h0c.5.4,1.4,1.1,1.7,1.5Z"/>
    <path class="st1" d="M469.1,79.7c-1.9,0-3.3-1-3.3-2s1.8-2,3.5-2,2.3.4,2.3,1h.1c.6-1.9-.3-3.3-2.2-3.3s-4.2,2.4-4.2,5.2.2,1.3.6,1.7c-.5,0-1,0-1.3,0-1.8,0-2.6-.8-2.6-2.6s.1-4.5.1-6.5-.1-2.9-.1-3.9h-.1c-.5.8-1.3,1.9-2.1,2.6.2,1.4.6,5.3.6,7.9s-.4,1.4-1.6,2.1c.2-6.2-4.6-9.5-5.8-10.8h-.1c.1,1,0,2.7-.3,3.5,3.6,2.4,5.6,4.9,6.1,7.3-1.2.7-3.2,1.4-6.2,2.3h0c1.4.6,2.5,1.3,3.8,1.3,2.3,0,4-1.7,4.3-5.3h.1c0,4.5.9,5.3,3.3,5.3,0,0,0,0,0,0,0,0,0,0,0,0,0,0,0,0,0,0h0c3.2,0,4.9-.9,8-1.6.4-.9,1.4-2.4,1.8-2.9h0c-1.4.4-3.1.6-4.8.6Z"/>
    <path class="st1" d="M483.8,67.3h-.1c-.4.8-1.2,1.9-1.9,2.4.2,1,.3,2.6.3,3.3s0,1.5-.3,2.2c-1.3-1.6-3.3-3.5-6.6-6.1h-.1c.1,1,0,2.6-.3,3.3,3,1.5,5,3,6.3,4.3-1.1,1.8-3.1,3.3-6.4,4.6h0c1.8,1.1,2.5,2.4,4.9,2.4s3.9-1.4,3.9-4.5-.3-1.8-1-2.9c.9-1.5,1.3-3.4,1.3-5.7s-.1-2.5-.1-3.3ZM483.2,79.6c0,.4-1.3.8-3.8.8s-1.3,0-1.8-.2c1.8-.7,3.2-1.7,4.2-2.9,1,1.1,1.4,2,1.4,2.3Z"/>
    <path class="st1" d="M475.8,86.9c0-.4.6-1.1,1.6-1.1s.9.2,1,.7h.1c0-.1,0-.3,0-.5,0-.7-.4-1.2-1.1-1.2-1,0-1.9,1.3-1.9,2.7s.4,1.1,1.2,1.4c-.6.4-1.1.9-1.3,1.6h.1c.8-.7,2.1-1.3,3.5-1.6.1-.4.3-1,.5-1.3h0c-.4,0-1.5.2-2.2.2-1,0-1.5-.5-1.5-.8Z"/>
    <path class="st1" d="M488.3,67.3c-.5.8-1.4,2-2.1,2.7.3,1.6,1.2,11,1.1,13.9h.1c.7-2.5,1.2-2.6,1.2-7.9s-.2-7.7-.2-8.7h-.1Z"/>
    <path class="st1" d="M508.3,73.4c-.3.8-.9,2.2-1.3,2.7,1.1.8,2.3,2.1,2.3,2.6s-2.3,1.8-8,1.8-6.2-1.3-6.2-2.9,0-1.3.3-2.1h-.2c-.6,1.7-.8,2.9-.8,3.9,0,2.8,1.8,4.3,6.5,4.3s8.7-1.8,8.7-5.4-1-4.2-1.2-4.8h-.1Z"/>
    <path class="st1" d="M500.1,76.6c.7,0,2.2,0,3.8-.2,0-.4.5-1.6.7-2-1.3.1-3.7.2-4.1.2-1,0-1.5-.1-1.5-.6h-.1c0,.6-.4,1.2-.4,1.7,0,.7.6.9,1.6.9Z"/>
    <path class="st1" d="M517.7,78.1h.1c.5-.8,1.1-1.2,2.1-1.2,1.6,0,3.4,1.1,6.5,1.6h0c-1.8.7-3.1,1.8-9.6,1.8-2,0-2.8-.8-2.8-2.5s.1-4.6.1-6.6-.1-2.9-.1-3.9h-.1c-.5.8-1.3,2-2.1,2.7.4,1.9.6,3,.8,9.2.1,3.3,1.1,4.3,3.6,4.3,0,0,0,0,0,0,0,0,0,0,0,0s0,0,0,0h0c6.9,0,7.8-4.6,11.4-4.7.3-.6,1-1.6,1.4-2h0c-3.4-.2-6.6-2.4-8.7-2.4s-1.9.6-2.7,3.6Z"/>
    <path class="st1" d="M566.5,67.3c-.5.8-1.3,2-2.1,2.7.3,1.5,1.4,7.9,1.4,9.6s-.9.7-2.6.7c-1.4,0-2.2-.6-3-2.3-1.1-2.2-1.9-2.8-3-2.8s-2.1.9-3.3,3.4l-.4-.3c-.7,1.6-1.4,1.9-2.7,1.9-2.1,0-2.8-.8-2.8-1.7v-1.7c-.2.2-.6.3-.8.4.1.4.3,1.4.3,2-.2.5-.9,1-2,1s-1.3-.2-1.7-.6c.1-.7.2-1.7.3-1.9h-.2c-.3,1.9-1,2.5-2.8,2.5s-1.5-.2-1.9-.5c.1-.7.3-1.8.3-2h-.2c-.4,2-1.3,2.5-3.3,2.5-2,0-2.8-.8-2.8-2.5s.1-4.6.1-6.6-.1-2.9-.1-3.9h-.1c-.5.8-1.3,2-2.1,2.7.4,1.9.6,3,.8,9.2.1,3.3,1.1,4.3,3.6,4.3,0,0,0,0,0,0,0,0,0,0,0,0s0,0,0,0h0c1.8,0,2.9-.9,3.3-2.8h.1c-.3,1.9.5,2.8,1.9,2.8s2.5-.9,2.7-2.8h.1c-.2,1.9.5,2.8,1.8,2.8s2.1-.9,2.3-2.8h.1c-.2,1.9.7,2.8,2.4,2.8,0,0,0,0,0,0s0,0,0,0,0,0,0,0h0c2.5,0,2.7-2.9,3.2-4.1h.1c0,.4-.2,1.1-.2,1.6,0,1.6,2.2,2.9,4.5,2.9s1.9-1.1,2-3.5h.1c.2,2.2,1.2,3.2,2.7,3.2h0s0,0,0,0c1.1,0,1.7-.2,2.2-.9,1.2-1.7,1.8-4.6,1.8-6.4,0-3.4-.3-7.9-.3-8.9h-.1ZM558.4,80.7c-1.2,0-3.4-.8-4.1-1.8.5-.8,1.2-1.3,2.3-1.3,1.8,0,3.1,1.5,3.1,2.5s-.4.6-1.2.6Z"/>
    <path class="st1" d="M571.4,67.3h-.1c-.5.8-1.4,2-2.1,2.7.3,1.6,1.2,11,1.1,13.9h.1c.7-2.5,1.2-2.6,1.2-7.9s-.2-7.7-.2-8.7Z"/>
  </g>
</svg>