<?xml version="1.0" encoding="UTF-8"?>
<svg id="Layer_1" xmlns="http://www.w3.org/2000/svg" version="1.1" xmlns:xlink="http://www.w3.org/1999/xlink" viewBox="0 0 595.3 150.1">
  <!-- Generator: Adobe Illustrator 29.3.0, SVG Export Plug-In . SVG Version: 2.1.0 Build 146)  -->
  <defs>
    <style>
      .st0 {
        fill: #231f20;
      }

      .st1 {
        fill: url(#linear-gradient1);
      }

      .st2 {
        fill: none;
      }

      .st3 {
        fill: #0e0808;
      }

      .st4 {
        clip-path: url(#clippath-1);
      }

      .st5 {
        fill: url(#linear-gradient);
      }

      .st6 {
        clip-path: url(#clippath);
      }
    </style>
    <clipPath id="clippath">
      <rect class="st2" x="431.1" y="80.2" width="138.9" height="4.1"/>
    </clipPath>
    <linearGradient id="linear-gradient" x1="0" y1="843.9" x2="1.1" y2="843.9" gradientTransform="translate(422.2 123232.6) scale(145.9 -145.9)" gradientUnits="userSpaceOnUse">
      <stop offset="0" stop-color="#fef491"/>
      <stop offset="0" stop-color="#f7e782"/>
      <stop offset=".3" stop-color="#e9cd65"/>
      <stop offset=".5" stop-color="#dfba50"/>
      <stop offset=".8" stop-color="#d9af43"/>
      <stop offset="1" stop-color="#d7ac3f"/>
      <stop offset="1" stop-color="#d7ac3f"/>
    </linearGradient>
    <clipPath id="clippath-1">
      <rect class="st2" x="511" y="105.4" width="59" height="4.1"/>
    </clipPath>
    <linearGradient id="linear-gradient1" x1=".1" y1="843.8" x2="1.1" y2="843.8" gradientTransform="translate(502.1 55800.2) scale(66 -66)" gradientUnits="userSpaceOnUse">
      <stop offset="0" stop-color="#fef491"/>
      <stop offset="0" stop-color="#f7e782"/>
      <stop offset=".3" stop-color="#e9cd65"/>
      <stop offset=".5" stop-color="#dfba50"/>
      <stop offset=".8" stop-color="#d9af43"/>
      <stop offset="1" stop-color="#d7ac3f"/>
      <stop offset="1" stop-color="#d7ac3f"/>
    </linearGradient>
  </defs>
  <g>
    <g class="st6">
      <rect class="st5" x="431.1" y="80.2" width="138.9" height="4.1"/>
    </g>
    <g class="st4">
      <rect class="st1" x="511" y="105.4" width="59" height="4.1"/>
    </g>
    <path class="st3" d="M569.5,103.9c0,4.3-.4,4.8-1,7.2h-.1c.1-3-.6-13-.9-14.5.5-.5,1.2-1.5,1.6-2.1h.1c0,1,.3,5.9.3,9.4M562.4,110.1c-.4.6-1.2.8-2.4.8s-.6-.3-.6-.8c0-1.1.3-1.6.9-1.6,1.9,0,2.7-.4,2.7-1,0-2.1-.9-9.3-1.2-10.7.5-.6,1.2-1.5,1.6-2.1h.1c0,1.1.3,6.6.3,10.2s-.5,4-1.5,5.3M551.4,106.7c.6,1.1,2.6,2,4.1,2s1.4-.3,1.4-.9c0-1.4-1.2-2.9-3-2.9s-2,.7-2.5,1.8M557.3,107.9h-.1c0,2.2-.8,3.2-2,3.2-2.2,0-4.1-1.2-4.4-2.7,0-.5,0-1,0-1.4h-.1c-.5,1.4-1,3.7-3.3,3.7s-.5-.3-.5-.8c0-1.1.3-1.6.9-1.6,1.4,0,2.2-.4,2.9-2.1l.4.3c1.1-2.5,2-3.5,3.3-3.5s2,.7,2.9,2.8c.7,1.8,1.5,2.4,3,2.4l-.4,2.5c-1.5,0-2.5-.9-2.7-2.9M545.9,102.9c-1.5.1-3,.2-3.6.2-1.1,0-1.6-.2-1.6-.8s.2-.8.3-1.3h.1c0,.4.4.5,1.5.5s2.7,0,3.9-.1c-.2.3-.5,1.2-.6,1.6M544.8,107.2h-.1c-.2,2.6-1.5,3.6-4.6,3.6s-.5-.3-.5-.8c0-1.1.3-1.6.9-1.6,3.5,0,4.2-.7,4.5-3.4h.2v1c0,1.6.6,2.4,2.6,2.4l-.4,2.5c-1.7,0-2.9-.8-2.7-3.6M536.6,106.8c-.1-7.1-.3-8.1-.7-10.1.5-.5,1.2-1.5,1.6-2.1h.1c0,1,.1,2,.1,3.9s-.1,4.9-.1,7.2.8,2.7,2.9,2.7l-.4,2.5c-2.5,0-3.4-1-3.5-4.1M532.7,104.5h0c-.3.4-.9,1.2-1.1,1.7-3.3,0-4.6,4.7-11.5,4.7s-.5-.3-.5-.8c0-1.1.3-1.6.9-1.6,6.3,0,7.9-1.8,10-2.4h0c-3.2-.7-5-1.9-6.7-1.9s-1.6.5-2.1,1.4h-.1c.7-2.7,1.5-3.3,2.6-3.3,2.1,0,5,2.1,8.5,2.2M516.1,110.8c-.4,0-.5-.3-.5-.8,0-1.1.3-1.6.9-1.6h4.1l-.4,2.5h-4.1ZM516.1,110.8c-.4,0-.5-.3-.5-.8,0-1.1.3-1.6.9-1.6h4.1l-.4,2.5h-4.1ZM509.6,97.2c0-.3.2-.8.3-1.3h.1c0,.4.4.5,1.5.5s2.7,0,3.9-.1c-.2.3-.5,1.2-.6,1.6-1.5.1-3,.2-3.6.2-1.1,0-1.6-.2-1.6-.8M512.5,105.8c0-.9,0-2-.2-2.9-3.8,2-4.7,3-4.7,3.6s.5.9,1.9.9,3-.7,3-1.6M516.5,108.4l-.4,2.5c-2.1,0-3.3-1.2-3.4-4.2h-.1c-.3,2.1-1.3,3.2-3.4,3.2s-2.3-.7-2.3-2c0-1.8,1.1-3.1,5.3-5.7,0-.4-.1-.8-.2-1.1.4-.3,1-1,1.4-1.7h0c.1,1.1.3,2.5.3,6s.9,3,2.7,3"/>
  </g>
  <g>
    <path class="st0" d="M433.9,70.3c.7,0,2.2,0,3.8-.2,0-.4.5-1.6.7-2-1.3.1-3.7.2-4.1.2-1,0-1.5-.1-1.5-.6h-.1c0,.6-.4,1.2-.4,1.7,0,.7.6.9,1.6.9Z"/>
    <path class="st0" d="M441.8,85.4c-.7,0-2.2,0-3.8.2-.1.4-.5,1.6-.7,2,1.3-.1,3.7-.2,4.1-.2,1,0,1.5.1,1.5.6h.1c0-.6.4-1.2.4-1.7,0-.7-.6-.9-1.6-.9Z"/>
    <path class="st0" d="M450.2,74.2c-.3.8-.9,2.2-1.3,2.7,1.1.8,2.3,2.1,2.3,2.6s-2,.9-4.1.9c-2.1,0-2.7-.8-2.7-2.1v-1.1h-.2c-.4,2.6-1,3.2-4.8,3.2-1.6,0-2.4-.8-2.4-2.8,0-3.8-.2-5.2-.3-6h0c-.5.8-1.3,1.7-1.8,2.1,0,.2.1.6.2,1-4.2,2.6-5.2,3.9-5.2,5.8s.8,2.1,2.4,2.1,3-1.1,3.3-3.6h.1c.1,3.4,1.3,4.6,3.3,4.6,0,0,0,0,0,0,0,0,0,0,0,0s0,0,0,0h0c3.3,0,4.7-1.1,4.8-3.9h.1c-.3,3,1.1,3.9,2.7,3.9,0,0,0,0,0,0,0,0,0,0,0,0s0,0,0,0h0c3.7,0,5-1.5,5-4.5s-1-4.2-1.2-4.8h-.1ZM432.4,79.4c-1.4,0-1.8-.3-1.8-.8s.8-1.3,4.4-3.1c.1.9.2,1.9.2,2.6s-1.2,1.3-2.8,1.3Z"/>
    <path class="st0" d="M449.2,73.1l1.5-1.6c-.3-.5-1.2-1.3-1.8-1.6l-1.4,1.7h0c.5.4,1.4,1.1,1.7,1.5Z"/>
    <path class="st0" d="M469.1,79.7c-1.9,0-3.3-1-3.3-2s1.8-2,3.5-2,2.3.4,2.3,1h.1c.6-1.9-.3-3.3-2.2-3.3s-4.2,2.4-4.2,5.2.2,1.3.6,1.7c-.5,0-1,0-1.3,0-1.8,0-2.6-.8-2.6-2.6s.1-4.5.1-6.5-.1-2.9-.1-3.9h-.1c-.5.8-1.3,1.9-2.1,2.6.2,1.4.6,5.3.6,7.9s-.4,1.4-1.6,2.1c.2-6.2-4.6-9.5-5.8-10.8h-.1c.1,1,0,2.7-.3,3.5,3.6,2.4,5.6,4.9,6.1,7.3-1.2.7-3.2,1.4-6.2,2.3h0c1.4.6,2.5,1.3,3.8,1.3,2.3,0,4-1.7,4.3-5.3h.1c0,4.5.9,5.3,3.3,5.3,0,0,0,0,0,0,0,0,0,0,0,0,0,0,0,0,0,0h0c3.2,0,4.9-.9,8-1.6.4-.9,1.4-2.4,1.8-2.9h0c-1.4.4-3.1.6-4.8.6Z"/>
    <path class="st0" d="M483.8,67.3h-.1c-.4.8-1.2,1.9-1.9,2.4.2,1,.3,2.6.3,3.3s0,1.5-.3,2.2c-1.3-1.6-3.3-3.5-6.6-6.1h-.1c.1,1,0,2.6-.3,3.3,3,1.5,5,3,6.3,4.3-1.1,1.8-3.1,3.3-6.4,4.6h0c1.8,1.1,2.5,2.4,4.9,2.4s3.9-1.4,3.9-4.5-.3-1.8-1-2.9c.9-1.5,1.3-3.4,1.3-5.7s-.1-2.5-.1-3.3ZM483.2,79.6c0,.4-1.3.8-3.8.8s-1.3,0-1.8-.2c1.8-.7,3.2-1.7,4.2-2.9,1,1.1,1.4,2,1.4,2.3Z"/>
    <path class="st0" d="M475.8,86.9c0-.4.6-1.1,1.6-1.1s.9.2,1,.7h.1c0-.1,0-.3,0-.5,0-.7-.4-1.2-1.1-1.2-1,0-1.9,1.3-1.9,2.7s.4,1.1,1.2,1.4c-.6.4-1.1.9-1.3,1.6h.1c.8-.7,2.1-1.3,3.5-1.6.1-.4.3-1,.5-1.3h0c-.4,0-1.5.2-2.2.2-1,0-1.5-.5-1.5-.8Z"/>
    <path class="st0" d="M488.3,67.3c-.5.8-1.4,2-2.1,2.7.3,1.6,1.2,11,1.1,13.9h.1c.7-2.5,1.2-2.6,1.2-7.9s-.2-7.7-.2-8.7h-.1Z"/>
    <path class="st0" d="M508.3,73.4c-.3.8-.9,2.2-1.3,2.7,1.1.8,2.3,2.1,2.3,2.6s-2.3,1.8-8,1.8-6.2-1.3-6.2-2.9,0-1.3.3-2.1h-.2c-.6,1.7-.8,2.9-.8,3.9,0,2.8,1.8,4.3,6.5,4.3s8.7-1.8,8.7-5.4-1-4.2-1.2-4.8h-.1Z"/>
    <path class="st0" d="M500.1,76.6c.7,0,2.2,0,3.8-.2,0-.4.5-1.6.7-2-1.3.1-3.7.2-4.1.2-1,0-1.5-.1-1.5-.6h-.1c0,.6-.4,1.2-.4,1.7,0,.7.6.9,1.6.9Z"/>
    <path class="st0" d="M517.7,78.1h.1c.5-.8,1.1-1.2,2.1-1.2,1.6,0,3.4,1.1,6.5,1.6h0c-1.8.7-3.1,1.8-9.6,1.8-2,0-2.8-.8-2.8-2.5s.1-4.6.1-6.6-.1-2.9-.1-3.9h-.1c-.5.8-1.3,2-2.1,2.7.4,1.9.6,3,.8,9.2.1,3.3,1.1,4.3,3.6,4.3,0,0,0,0,0,0,0,0,0,0,0,0s0,0,0,0h0c6.9,0,7.8-4.6,11.4-4.7.3-.6,1-1.6,1.4-2h0c-3.4-.2-6.6-2.4-8.7-2.4s-1.9.6-2.7,3.6Z"/>
    <path class="st0" d="M566.5,67.3c-.5.8-1.3,2-2.1,2.7.3,1.5,1.4,7.9,1.4,9.6s-.9.7-2.6.7c-1.4,0-2.2-.6-3-2.3-1.1-2.2-1.9-2.8-3-2.8s-2.1.9-3.3,3.4l-.4-.3c-.7,1.6-1.4,1.9-2.7,1.9-2.1,0-2.8-.8-2.8-1.7v-1.7c-.2.2-.6.3-.8.4.1.4.3,1.4.3,2-.2.5-.9,1-2,1s-1.3-.2-1.7-.6c.1-.7.2-1.7.3-1.9h-.2c-.3,1.9-1,2.5-2.8,2.5s-1.5-.2-1.9-.5c.1-.7.3-1.8.3-2h-.2c-.4,2-1.3,2.5-3.3,2.5-2,0-2.8-.8-2.8-2.5s.1-4.6.1-6.6-.1-2.9-.1-3.9h-.1c-.5.8-1.3,2-2.1,2.7.4,1.9.6,3,.8,9.2.1,3.3,1.1,4.3,3.6,4.3,0,0,0,0,0,0,0,0,0,0,0,0s0,0,0,0h0c1.8,0,2.9-.9,3.3-2.8h.1c-.3,1.9.5,2.8,1.9,2.8s2.5-.9,2.7-2.8h.1c-.2,1.9.5,2.8,1.8,2.8s2.1-.9,2.3-2.8h.1c-.2,1.9.7,2.8,2.4,2.8,0,0,0,0,0,0s0,0,0,0,0,0,0,0h0c2.5,0,2.7-2.9,3.2-4.1h.1c0,.4-.2,1.1-.2,1.6,0,1.6,2.2,2.9,4.5,2.9s1.9-1.1,2-3.5h.1c.2,2.2,1.2,3.2,2.7,3.2h0s0,0,0,0c1.1,0,1.7-.2,2.2-.9,1.2-1.7,1.8-4.6,1.8-6.4,0-3.4-.3-7.9-.3-8.9h-.1ZM558.4,80.7c-1.2,0-3.4-.8-4.1-1.8.5-.8,1.2-1.3,2.3-1.3,1.8,0,3.1,1.5,3.1,2.5s-.4.6-1.2.6Z"/>
    <path class="st0" d="M571.4,67.3h-.1c-.5.8-1.4,2-2.1,2.7.3,1.6,1.2,11,1.1,13.9h.1c.7-2.5,1.2-2.6,1.2-7.9s-.2-7.7-.2-8.7Z"/>
  </g>
</svg>